# xmcd
#
# Track frame offsets:
#	150
#	16160
#	33805
#	54550
#	69625
#	83590
#	101375
#	124947
#	144762
#
# Disc length: 2122
#
# Revision: 1
# Processed by: cddbd v1.5.1PL0 Copyright (c) Steve Scherf et al.
# Submitted via: CDex 1.50beta10
# Normalized: r0:TRMNUM
#
DISCID=66084809
DTITLE=guitar vader - DAWN
DYEAR=2003
DGENRE=Rock
TTITLE0=SATISFY
TTITLE1=mysteriou dirty girl
TTITLE2=Bird Ship
TTITLE3=BLUE VELVET
TTITLE4=MAHIRUNOTSUKI
TTITLE5=Leave me alone
TTITLE6=EVERYDAY
TTITLE7=Cutting evil smile diablo remix
TTITLE8=SATISFY KIDCUT REMIX
EXTD=YEAR: 2003
EXTT0=
EXTT1=
EXTT2=
EXTT3=
EXTT4=
EXTT5=
EXTT6=
EXTT7=
EXTT8=
PLAYORDER=
